<?xml version="1.0" encoding="UTF-8" standalone="no"?>
<!DOCTYPE svg PUBLIC "-//W3C//DTD SVG 1.1//EN" "http://www.w3.org/Graphics/SVG/1.1/DTD/svg11.dtd">
<svg width="100%" height="100%" viewBox="0 0 513 512" version="1.1" xmlns="http://www.w3.org/2000/svg" xmlns:xlink="http://www.w3.org/1999/xlink" xml:space="preserve" xmlns:serif="http://www.serif.com/" style="fill-rule:evenodd;clip-rule:evenodd;stroke-linejoin:round;stroke-miterlimit:2;">
    <g transform="matrix(1,0,0,1,0.026699,0)">
        <path d="M346.667,512L165.333,512C157.44,512 150.72,506.24 149.525,498.432L128.192,359.765C127.488,355.157 128.811,350.443 131.861,346.901C134.912,343.36 139.328,341.333 144,341.333L368,341.333C372.672,341.333 377.109,343.381 380.139,346.923C383.168,350.464 384.512,355.157 383.808,359.787L362.475,498.453C361.28,506.24 354.56,512 346.667,512Z" style="fill:rgb(247,174,1);fill-rule:nonzero;"/>
        <circle cx="256" cy="85.333" r="85.333" style="fill:rgb(247,174,1);"/>
        <path d="M495.296,277.333C491.904,230.037 466.475,186.261 426.645,159.787C426.539,142.208 412.267,128 394.667,128C377.003,128 362.667,142.336 362.667,160C362.667,177.664 377.003,192 394.667,192C400.512,192 405.909,190.315 410.624,187.584C440.64,208.256 460.032,241.387 463.296,277.333L425.387,277.333C417.707,229.12 375.893,192 325.333,192L186.667,192C136.107,192 94.293,229.12 86.613,277.333L16,277.333C4.672,277.333 -2.645,288.811 0.853,298.88L43.52,416.213C45.867,422.4 51.84,426.667 58.667,426.667L95.36,426.667L85.973,366.293C83.413,349.227 88.32,332.16 99.413,319.147C108.928,307.733 125.76,298.667 144,298.667L368,298.667C384.107,298.667 400.363,305.301 412.587,319.147C423.68,332.16 428.587,349.227 426.027,366.293L416.64,426.667L453.333,426.667C460.16,426.667 466.133,422.4 468.48,416.213L511.147,298.88C514.517,289.173 508.075,277.333 495.296,277.333Z" style="fill:rgb(247,174,1);fill-rule:nonzero;"/>
    </g>
</svg>
